<svg id="Layer_1_copy" height="512" viewBox="0 0 64 64" width="512" xmlns="http://www.w3.org/2000/svg" data-name="Layer 1 copy"><path d="m62 37-4 4-26-10 26-1z" fill="#fab15b"/><path d="m37 39-.125 25h-18.75l-.125-12h-9a3 3 0 0 1 -3-3v-2l2-8-6-1 .09-.11 5.91-6.89-2-4 .02-.03 5.1-7.13z" fill="#fbb042"/><path d="m18.916 13.286 15.084-6.286 4-5-6-1-15.216 7.997z" fill="#e29243"/><path d="m32 37 23 12 7-2-4-6-20.301-8.12z" fill="#83441d"/><path d="m37.636 26.364 21.364-8.364 3-7-9-3-31 13 4 10z" fill="#83441d"/><path d="m60 2-5 6-33 13-3.11-4.35-1.89-2.65 17-7 11-4 7-2 5.22.65z" fill="#fab15b"/><g opacity=".2"><path d="m57.22 1.65-3.91 1.53-32.5 12.72-1.92.75-1.89-2.65 17-7 11-4 7-2z" fill="#fff"/></g><path d="m62 25-4 5-20.89.803-1.11-3.803 18-7 4.92 3.08z" fill="#e29243"/><g opacity=".2"><path d="m58.92 23.08-21.35 6.28-1.57-2.36 18-7z" fill="#fff"/></g><path d="m59 61h-7l-17-13-3-11 25 18 1.71 5.14z" fill="#fab15b"/><path d="m59 61h-7l-17-13-1.22-4.473 24.93 16.613z" fill="#e29243"/><path d="m26 31-.26-.19-16.97-12.73a3 3 0 0 1 -.32-4.53l4.33-4.33a3 3 0 0 1 4.91 1z" fill="#c76b28"/><path d="m32 41 3 2.83v11.17l-3 5-3-6v-10z" fill="#1670b2" stroke="#1670b2" stroke-linecap="round" stroke-linejoin="round" stroke-width="2"/><g opacity=".5"><path d="m18 32c-.98.98-6.53 2.92-11.93 4.65-1.36.43-2.72.85-3.98 1.24l5.91-6.89-2-4 .02-.03c.79.2 1.65.42 2.53.66 4.92 1.34 10.62 3.2 9.45 4.37z" fill="#c76b28"/></g><g opacity=".5"><path d="m23.542 64h-5.542v-12l5.667 2z" fill="#c76b28"/></g><path d="m25.74 30.81-16.97-12.73a3 3 0 0 1 -.32-4.53l2.18-2.18z" fill="#83441d"/><path d="m32 27a4 4 0 1 0 4 4 4 4 0 0 0 -4-4z" fill="#e93527"/><path d="m38 31a6 6 0 1 1 -6-6 5.893 5.893 0 0 1 3.26.97 5.969 5.969 0 0 1 2.74 5.03z" fill="#e93527"/><path d="m35.26 25.97c-4.45.27-7.18 4.26-8.7 7.57a6.007 6.007 0 0 1 5.44-8.54 5.893 5.893 0 0 1 3.26.97z" fill="#f05754"/><path d="m15 40a1 1 0 0 1 -1-1v-4a1 1 0 0 1 2 0v4a1 1 0 0 1 -1 1z" fill="#ea3326"/><path d="m21 40a1 1 0 0 1 -1-1v-4a1 1 0 0 1 2 0v4a1 1 0 0 1 -1 1z" fill="#166fb2"/></svg>