<svg id="Layer_1" enable-background="new 0 0 512 512" height="512" viewBox="0 0 512 512" width="512" xmlns="http://www.w3.org/2000/svg"><g><g><g><path d="m272 48h96v288h-96z" fill="#5ad7ff"/></g><g><path d="m368 48h-96c-8.837 0-16-7.163-16-16 0-8.837 7.163-16 16-16h96c8.837 0 16 7.163 16 16 0 8.837-7.163 16-16 16z" fill="#5ad7ff"/></g><g><circle cx="320" cy="336" fill="#5ad7ff" r="160"/></g><g><circle cx="320" cy="336" fill="#5ad7ff" r="160"/></g><path d="m368 183.33v-135.33h-96v16h32c8.837 0 16 7.164 16 16v96l50.745 50.745c40.318 40.318 11.763 109.255-45.255 109.255h-165.49c0 88.366 71.634 160 160 160 88.365 0 160-71.634 160-160 0-71.642-47.087-132.281-112-152.67z" fill="#2387c3"/><g><path d="m195.364 263.839c-12.347 21.278-19.405 46.006-19.364 72.387.122 79.345 66.604 144.81 145.942 143.761 78.634-1.039 142.058-65.106 142.058-143.987 0-26.2-7.001-50.763-19.229-71.927-2.875-4.976-8.157-8.073-13.904-8.073h-221.737c-5.651 0-10.93 2.952-13.766 7.839z" fill="#fad741"/></g><g><path d="m444.771 264.073c-2.875-4.976-8.157-8.073-13.904-8.073h-43.206c9.683 37.707-17.51 80-62.17 80h-149.487c0 .076-.004.151-.003.226.122 79.345 66.604 144.81 145.942 143.761 78.633-1.039 142.057-65.106 142.057-143.987 0-26.2-7.001-50.763-19.229-71.927z" fill="#faa032"/></g><g><path d="m296 104c-4.418 0-8-3.582-8-8v-8c0-4.418 3.582-8 8-8s8 3.582 8 8v8c0 4.418-3.582 8-8 8z" fill="#fff"/></g><g><path d="m184 344c-4.418 0-8-3.582-8-8 0-64.845 43.651-121.993 106.151-138.974 3.443-.936 5.849-4.154 5.849-7.827v-61.199c0-4.418 3.582-8 8-8s8 3.582 8 8v61.199c0 10.876-7.26 20.443-17.654 23.268-55.549 15.092-94.346 65.891-94.346 123.533 0 4.418-3.582 8-8 8z" fill="#fff"/></g></g><g><g><circle cx="160" cy="480" fill="#d7e6f0" r="16"/></g><g><path d="m160 464v32c8.837 0 16-7.163 16-16s-7.163-16-16-16z" fill="#a5c3dc"/></g><g><path d="m176 368h-32c-61.856 0-112-50.144-112-112 0-61.856 50.144-112 112-112h32c61.856 0 112 50.144 112 112 0 61.856-50.144 112-112 112z" fill="#463c4b"/></g><g><circle cx="144" cy="256" fill="#555a6e" r="112"/></g><g><circle cx="144" cy="256" fill="#d7e6f0" r="77.333"/></g><g><circle cx="112" cy="224" fill="#fff" r="16"/></g><g><path d="m144 368h32v16h-32z" fill="#d7e6f0"/></g><g><path d="m144 368v8h8c4.418 0 8 3.582 8 8h16v-16z" fill="#a5c3dc"/></g><g><path d="m176 480h-32c-4.418 0-8-3.582-8-8v-80c0-4.418 3.582-8 8-8h32c4.418 0 8 3.582 8 8v80c0 4.418-3.582 8-8 8z" fill="#555a6e"/></g><g><path d="m176 480h-16v-96h16c4.418 0 8 3.582 8 8v80c0 4.418-3.582 8-8 8z" fill="#463c4b"/></g></g><g><g><path d="m304.402 423.807-30.163.172c-4.846.028-9.501-1.885-12.927-5.312-3.401-3.401-5.312-8.014-5.312-12.824v-29.821c0-44.183 35.817-80 80-80h29.799c4.824 0 9.451 1.916 12.862 5.328 3.418 3.418 5.335 8.055 5.328 12.888l-.042 29.684c-.063 43.961-35.585 79.635-79.545 79.885z" fill="#1e962d"/></g><g><path d="m378.661 301.349-.016-.016c-3.415-3.415-8.046-5.333-12.876-5.333h-29.769c-44.183 0-80 35.817-80 80v29.769c0 4.829 1.918 9.461 5.333 12.876z" fill="#8acb37"/></g><g><path d="m248 435.979c-1.024 0-2.047-.391-2.829-1.172-1.562-1.562-1.562-4.095 0-5.656l130.646-130.646c1.561-1.563 4.096-1.563 5.656 0 1.563 1.562 1.563 4.095 0 5.656l-130.644 130.646c-.782.781-1.806 1.172-2.829 1.172z" fill="#d7e123"/></g><g><circle cx="314.667" cy="322.645" fill="#d7e123" r="10.667"/></g></g></g></svg>